<?xml version="1.0" encoding="utf-8"?>
<!-- Generator: Adobe Illustrator 21.0.0, SVG Export Plug-In . SVG Version: 6.00 Build 0)  -->
<svg version="1.1" id="Calque_1" xmlns="http://www.w3.org/2000/svg" xmlns:xlink="http://www.w3.org/1999/xlink" x="0px" y="0px"
	 viewBox="0 0 177.6 35.2" style="enable-background:new 0 0 177.6 35.2;" xml:space="preserve">
<style type="text/css">
	.st0{fill:#DCE4F4;}
	.st1{fill:#FFFFFF;}
</style>
<title>NEWWW</title>
<path class="st0" d="M4.8,11.6h1.1c0.4,0,0.8-0.1,1.1-0.2c0.3-0.1,0.6-0.3,0.8-0.6L15,1.7c0.3-0.3,0.6-0.6,0.9-0.8
	c0.4-0.2,0.8-0.2,1.2-0.2h4.2l-8.8,10.8c-0.2,0.3-0.5,0.6-0.8,0.8c-0.2,0.2-0.5,0.4-0.8,0.6c0.4,0.1,0.8,0.3,1.1,0.6
	c0.4,0.3,0.7,0.6,0.9,1l9,12.2h-4.3c-0.4,0-0.9-0.1-1.3-0.2c-0.3-0.2-0.5-0.4-0.7-0.7l-7.4-9.6c-0.2-0.3-0.5-0.5-0.8-0.7
	c-0.4-0.2-0.8-0.2-1.3-0.2H4.8v11.4H0v-26h4.8L4.8,11.6z"/>
<path class="st0" d="M24.7,26.7V8.2h2.7c0.5,0,1,0.3,1.1,0.8l0.3,1.5c0.4-0.4,0.8-0.7,1.2-1c0.4-0.3,0.8-0.6,1.3-0.8
	c0.5-0.2,1-0.4,1.5-0.5C33.3,8,33.9,8,34.5,8c0.9,0,1.8,0.2,2.7,0.5c0.8,0.3,1.4,0.8,2,1.5c0.5,0.7,0.9,1.4,1.2,2.2
	c0.3,0.9,0.4,1.9,0.4,2.8v11.7h-4.4V15c0.1-0.9-0.2-1.9-0.8-2.6c-0.6-0.6-1.5-1-2.3-0.9c-0.8,0-1.5,0.2-2.2,0.5
	c-0.7,0.4-1.3,0.9-1.9,1.5v13.3L24.7,26.7z"/>
<path class="st0" d="M63.3,8.2h3.5c0.3,0,0.6,0.1,0.8,0.2C67.9,8.6,68,8.8,68.1,9l2.7,9.8c0.1,0.5,0.3,1.1,0.3,1.6l0.3,1.5
	c0.1-0.5,0.3-1,0.4-1.5c0.1-0.4,0.3-1,0.5-1.6l3-9.9c0.1-0.2,0.2-0.4,0.4-0.6c0.2-0.2,0.5-0.2,0.8-0.2h2c0.3,0,0.6,0.1,0.8,0.2
	c0.2,0.1,0.4,0.3,0.4,0.6l3,10.1c0.2,0.5,0.3,1,0.4,1.5s0.3,1,0.4,1.5c0-0.5,0.2-1,0.3-1.5c0.1-0.5,0.2-1.1,0.4-1.6l2.7-9.8
	c0.1-0.2,0.2-0.5,0.4-0.6c0.2-0.2,0.5-0.2,0.8-0.2h3.4l-5.9,18.4h-3.4c-0.4,0-0.7-0.3-0.8-0.8l-3.3-10.7c-0.1-0.3-0.2-0.7-0.3-1.1
	s-0.2-0.7-0.2-1.1c0,0.4-0.1,0.7-0.2,1.1c-0.1,0.4-0.2,0.7-0.3,1.1L73.5,26c-0.1,0.5-0.5,0.8-1,0.8h-3.4L63.3,8.2z"/>
<path class="st0" d="M98.7,0v26.6h-4.4V0H98.7z"/>
<path class="st0" d="M111.4,8c1.1,0,2.2,0.2,3.2,0.5c0.9,0.4,1.8,0.9,2.5,1.6c0.7,0.8,1.3,1.7,1.7,2.6c0.4,1.1,0.6,2.3,0.6,3.5
	c0,0.3,0,0.6,0,0.8c0,0.2-0.1,0.4-0.2,0.5c-0.1,0.1-0.2,0.2-0.3,0.3c-0.2,0.1-0.3,0.1-0.5,0.1H107c0,1.5,0.5,3,1.5,4.2
	c0.9,0.9,2.2,1.4,3.5,1.3c0.6,0,1.3-0.1,1.9-0.3c0.5-0.1,0.9-0.3,1.4-0.5l1-0.6c0.3-0.2,0.6-0.2,0.9-0.3c0.2,0,0.3,0,0.5,0.1
	c0.1,0.1,0.3,0.2,0.3,0.3l1.3,1.6c-0.5,0.6-1,1.1-1.7,1.5c-0.6,0.4-1.2,0.7-1.9,0.9c-0.7,0.2-1.3,0.4-2,0.5c-0.7,0.1-1.3,0.1-2,0.1
	c-1.2,0-2.4-0.2-3.6-0.6c-1.1-0.4-2-1-2.9-1.9c-0.8-0.9-1.5-1.9-1.9-3.1c-0.5-1.4-0.7-2.8-0.7-4.3c0-1.2,0.2-2.4,0.6-3.5
	c0.4-1.1,1-2.1,1.8-3c0.8-0.8,1.7-1.5,2.8-2C108.8,8.2,110.1,8,111.4,8z M111.4,11.2c-1.1-0.1-2.2,0.3-3,1.1
	c-0.8,0.9-1.3,1.9-1.4,3.1h8.3c0-0.6-0.1-1.1-0.2-1.6c-0.1-0.5-0.4-1-0.7-1.3c-0.3-0.4-0.8-0.7-1.2-0.9
	C112.6,11.3,112,11.2,111.4,11.2L111.4,11.2z"/>
<path class="st0" d="M135.9,26.7c-0.5,0-1-0.3-1.1-0.8l-0.4-1.8c-0.4,0.4-0.8,0.8-1.2,1.2c-0.4,0.3-0.9,0.7-1.3,0.9
	c-0.5,0.3-1,0.4-1.6,0.6c-0.6,0.1-1.2,0.2-1.8,0.2c-1,0-1.9-0.2-2.8-0.6c-0.9-0.4-1.6-1.1-2.2-1.9c-0.7-0.9-1.1-1.9-1.4-3
	c-0.3-1.3-0.5-2.7-0.5-4c0-1.3,0.2-2.6,0.6-3.8c0.3-1.1,0.9-2.1,1.6-3c0.7-0.8,1.5-1.5,2.5-2c1-0.5,2.1-0.7,3.3-0.7
	c0.9,0,1.8,0.1,2.6,0.5c0.7,0.3,1.4,0.8,2,1.3V0h4.4v26.6L135.9,26.7z M130,23.5c0.8,0,1.6-0.2,2.4-0.6c0.7-0.4,1.3-1,1.8-1.6V13
	c-0.4-0.6-1-1-1.6-1.3c-0.6-0.3-1.3-0.4-1.9-0.4c-0.6,0-1.2,0.1-1.8,0.4c-0.5,0.3-1,0.6-1.4,1.1c-0.4,0.6-0.7,1.2-0.9,1.9
	c-0.2,0.9-0.3,1.8-0.3,2.8c0,0.9,0.1,1.8,0.3,2.7c0.1,0.7,0.4,1.3,0.7,1.8c0.3,0.4,0.7,0.8,1.2,1C128.9,23.4,129.5,23.5,130,23.5
	L130,23.5z"/>
<path class="st0" d="M149.8,7.9c0.7,0,1.5,0.1,2.2,0.3c0.7,0.2,1.3,0.4,1.9,0.7h5.3v1.6c0,0.2-0.1,0.5-0.2,0.7
	c-0.2,0.2-0.5,0.3-0.7,0.3l-1.7,0.3c0.1,0.3,0.2,0.6,0.3,1c0.1,0.4,0.1,0.7,0.1,1.1c0,0.9-0.2,1.7-0.5,2.5c-0.4,0.7-0.9,1.4-1.5,1.9
	c-0.7,0.5-1.5,0.9-2.3,1.2c-0.9,0.3-1.9,0.4-2.9,0.4c-0.7,0-1.4-0.1-2-0.2c-0.6,0.4-0.9,0.7-0.9,1.2c0,0.4,0.2,0.7,0.5,0.8
	c0.4,0.2,0.9,0.3,1.3,0.4c0.6,0.1,1.3,0.1,1.9,0.1c0.7,0,1.4,0,2.2,0.1c0.7,0.1,1.5,0.2,2.2,0.3c0.7,0.1,1.3,0.4,1.9,0.7
	c0.6,0.3,1,0.8,1.3,1.3c0.4,0.7,0.5,1.4,0.5,2.1c0,0.8-0.2,1.7-0.6,2.4c-0.4,0.8-1,1.5-1.7,2.1c-0.8,0.7-1.8,1.2-2.8,1.5
	c-1.2,0.4-2.5,0.6-3.8,0.5c-1.2,0-2.5-0.1-3.7-0.4c-0.9-0.2-1.8-0.6-2.6-1.1c-0.6-0.4-1.1-0.9-1.5-1.5c-0.3-0.6-0.5-1.2-0.5-1.8
	c0-0.8,0.3-1.6,0.8-2.2c0.6-0.6,1.4-1.1,2.2-1.4c-0.4-0.2-0.8-0.6-1.1-1c-0.3-0.5-0.4-1.1-0.4-1.6c0-0.3,0.1-0.6,0.1-0.9
	c0.1-0.3,0.2-0.6,0.4-0.9c0.5-0.6,1.1-1.1,1.8-1.5c-0.9-0.5-1.6-1.2-2.2-2c-0.5-0.9-0.8-1.9-0.8-3c0-1.7,0.7-3.3,2.1-4.4
	c0.7-0.5,1.5-0.9,2.3-1.2C147.9,8.2,148.8,8,149.8,7.9z M154.7,27.5c0-0.3-0.1-0.6-0.3-0.9c-0.2-0.3-0.5-0.4-0.9-0.5
	c-0.4-0.1-0.9-0.2-1.3-0.3c-0.5-0.1-1.1-0.1-1.6-0.1h-1.7c-0.6,0-1.2-0.1-1.7-0.2c-0.5,0.2-0.9,0.6-1.2,1c-0.3,0.4-0.5,0.8-0.5,1.3
	c0,0.3,0.1,0.6,0.3,0.9c0.2,0.3,0.5,0.6,0.8,0.7c0.4,0.2,0.9,0.4,1.4,0.5c0.7,0.1,1.4,0.2,2.1,0.2c0.7,0,1.4-0.1,2.1-0.2
	c0.5-0.1,1-0.3,1.5-0.5c0.3-0.2,0.6-0.5,0.9-0.8C154.6,28.2,154.7,27.8,154.7,27.5z M149.8,17.1c0.5,0,1-0.1,1.5-0.2
	c0.4-0.1,0.7-0.4,1-0.6c0.3-0.3,0.5-0.6,0.6-1c0.1-0.4,0.2-0.8,0.2-1.2c0-0.8-0.3-1.6-0.8-2.2c-1.5-1.1-3.5-1.1-4.9,0
	c-0.6,0.6-0.9,1.4-0.8,2.2c0,0.4,0.1,0.8,0.2,1.2c0.1,0.4,0.3,0.7,0.6,1c0.3,0.3,0.6,0.5,1,0.6C148.9,17,149.3,17.1,149.8,17.1z"/>
<path class="st0" d="M169.7,8c1.1,0,2.2,0.2,3.2,0.5c0.9,0.4,1.8,0.9,2.5,1.6c0.7,0.8,1.3,1.7,1.6,2.6c0.4,1.1,0.6,2.3,0.6,3.5
	c0,0.3,0,0.6,0,0.8c0,0.2-0.1,0.4-0.1,0.5c-0.1,0.1-0.2,0.2-0.3,0.3c-0.2,0.1-0.3,0.1-0.5,0.1h-11.4c0,1.5,0.5,3,1.5,4.2
	c0.9,0.9,2.2,1.4,3.5,1.3c0.6,0,1.3-0.1,1.9-0.3c0.5-0.1,0.9-0.3,1.4-0.5l1-0.6c0.3-0.2,0.5-0.2,0.8-0.3c0.2,0,0.3,0,0.5,0.1
	c0.1,0.1,0.3,0.2,0.3,0.3l1.3,1.6c-0.5,0.6-1,1.1-1.7,1.5c-0.6,0.4-1.2,0.7-1.9,0.9c-0.7,0.2-1.3,0.4-2,0.5c-0.7,0.1-1.3,0.1-2,0.1
	c-1.2,0-2.4-0.2-3.6-0.6c-1.1-0.4-2-1-2.9-1.9c-0.8-0.9-1.5-1.9-1.9-3.1c-0.5-1.4-0.7-2.8-0.7-4.3c0-1.2,0.2-2.4,0.6-3.6
	c0.4-1.1,1-2.1,1.7-3c0.8-0.8,1.7-1.5,2.8-2C167.1,8.2,168.4,7.9,169.7,8z M169.7,11.2c-1.1-0.1-2.2,0.3-3,1.1
	c-0.8,0.9-1.3,1.9-1.4,3.1h8.3c0-0.6-0.1-1.1-0.2-1.6c-0.1-0.5-0.4-0.9-0.7-1.3c-0.3-0.4-0.8-0.7-1.2-0.9
	C170.9,11.3,170.3,11.2,169.7,11.2L169.7,11.2z"/>
<path class="st1" d="M53.8,28.6c-5.2,0-9.5-4.2-9.5-9.5c0-5.2,4.2-9.5,9.5-9.5c5.2,0,9.5,4.2,9.5,9.5c0,2.5-1,4.9-2.8,6.7
	C58.7,27.6,56.3,28.6,53.8,28.6z M53.8,11.7c-4.1,0-7.4,3.3-7.4,7.4c0,4.1,3.3,7.4,7.4,7.4s7.4-3.3,7.4-7.4
	C61.2,15,57.8,11.7,53.8,11.7z"/>
<path class="st1" d="M53.9,20.8c-0.8,0-1.5-0.7-1.5-1.5s0.7-1.5,1.5-1.5c0.8,0,1.5,0.7,1.5,1.5S54.8,20.8,53.9,20.8z M53.9,18.1
	c-0.7,0-1.2,0.6-1.2,1.2s0.6,1.2,1.2,1.2c0.7,0,1.2-0.6,1.2-1.2S54.6,18.1,53.9,18.1z"/>
<path class="st1" d="M53.9,21.5c-1.2,0-2.2-1-2.2-2.1c0-1.2,1-2.2,2.1-2.2c1.2,0,2.2,1,2.2,2.1c0,0,0,0,0,0
	C56.1,20.6,55.1,21.5,53.9,21.5z M53.9,17.4c-1.1-0.1-2,0.7-2.1,1.8c-0.1,1.1,0.7,2,1.8,2.1c0.1,0,0.2,0,0.3,0
	c1.1-0.1,1.9-1,1.8-2.1C55.6,18.3,54.9,17.5,53.9,17.4z"/>
<polygon class="st1" points="53.1,23.8 51.6,23.8 51.6,23.7 53,23.7 53,21.3 53.1,21.3 "/>
<rect x="49.9" y="20.3" class="st1" width="2.2" height="0.1"/>
<rect x="48.4" y="18.5" class="st1" width="3.7" height="0.1"/>
<polygon class="st1" points="52.4,18.2 52.3,18.2 52.3,17.2 49.8,17.2 49.8,15.4 50,15.4 50,17.1 52.4,17.1 "/>
<polygon class="st1" points="54,17.3 53.9,17.3 53.9,15.1 57,15.1 57,15.2 54,15.2 "/>
<polygon class="st1" points="57.6,20.1 55.8,20.1 55.8,20 57.4,20 57.4,18.4 59.4,18.4 59.4,18.6 57.6,18.6 "/>
<polygon class="st1" points="56.1,23.6 55.1,23.6 55.1,21.1 55.2,21.1 55.2,23.4 56.1,23.4 "/>
<path class="st1" d="M49.9,15.5c-0.3,0-0.5-0.2-0.5-0.5c0-0.3,0.2-0.5,0.5-0.5s0.5,0.2,0.5,0.5C50.4,15.2,50.2,15.5,49.9,15.5z
	 M49.9,14.6c-0.2,0-0.3,0.1-0.3,0.3c0,0.2,0.1,0.3,0.3,0.3s0.3-0.1,0.3-0.3C50.2,14.8,50.1,14.6,49.9,14.6z"/>
<path class="st1" d="M48.1,19c-0.3,0-0.5-0.2-0.5-0.5c0-0.3,0.2-0.5,0.5-0.5c0.3,0,0.5,0.2,0.5,0.5v0C48.6,18.8,48.4,19,48.1,19z
	 M48.1,18.2c-0.2,0-0.3,0.1-0.3,0.3c0,0.2,0.1,0.3,0.3,0.3c0.2,0,0.3-0.1,0.3-0.3C48.4,18.3,48.3,18.2,48.1,18.2L48.1,18.2z"/>
<path class="st1" d="M51.3,24.2c-0.3,0-0.5-0.2-0.5-0.5c0-0.3,0.2-0.5,0.5-0.5c0.3,0,0.5,0.2,0.5,0.5v0C51.8,24,51.6,24.2,51.3,24.2
	C51.3,24.2,51.3,24.2,51.3,24.2z M51.3,23.4c-0.2,0-0.3,0.1-0.3,0.3c0,0,0,0,0,0c0,0.2,0.1,0.3,0.3,0.4s0.3-0.1,0.4-0.3
	C51.6,23.6,51.5,23.4,51.3,23.4C51.3,23.4,51.3,23.4,51.3,23.4z"/>
<path class="st1" d="M49.6,20.9c-0.3,0-0.5-0.2-0.5-0.5c0-0.3,0.2-0.5,0.5-0.5c0.3,0,0.5,0.2,0.5,0.5C50.1,20.7,49.8,20.9,49.6,20.9
	z M49.6,20.1c-0.2,0-0.3,0.1-0.3,0.3s0.1,0.3,0.3,0.3c0.2,0,0.3-0.1,0.3-0.3C49.9,20.2,49.7,20.1,49.6,20.1
	C49.6,20.1,49.6,20.1,49.6,20.1L49.6,20.1z"/>
<path class="st1" d="M59.7,19c-0.3,0-0.5-0.2-0.5-0.5c0-0.3,0.2-0.5,0.5-0.5c0.3,0,0.5,0.2,0.5,0.5c0,0,0,0,0,0
	C60.2,18.8,60,19,59.7,19z M59.7,18.1c-0.2,0-0.4,0.1-0.4,0.3c0,0.2,0.1,0.4,0.3,0.4c0,0,0.1,0,0.1,0c0.2,0,0.3-0.1,0.3-0.3
	c0,0,0,0,0,0C60.1,18.3,59.9,18.1,59.7,18.1C59.7,18.1,59.7,18.1,59.7,18.1z"/>
<path class="st1" d="M57.3,15.6c-0.3,0-0.5-0.2-0.5-0.5c0-0.3,0.2-0.5,0.5-0.5c0.3,0,0.5,0.2,0.5,0.5c0,0,0,0,0,0
	C57.9,15.4,57.6,15.6,57.3,15.6z M57.3,14.8c-0.2,0-0.3,0.1-0.3,0.3s0.1,0.3,0.3,0.3c0.2,0,0.3-0.1,0.3-0.3
	C57.7,14.9,57.5,14.8,57.3,14.8L57.3,14.8z"/>
<path class="st1" d="M56.5,24c-0.3,0-0.5-0.2-0.5-0.5c0-0.3,0.2-0.5,0.5-0.5c0.3,0,0.5,0.2,0.5,0.5C57,23.8,56.8,24,56.5,24z
	 M56.5,23.1c-0.2,0-0.3,0.1-0.3,0.3c0,0.2,0.1,0.3,0.3,0.3c0.2,0,0.3-0.1,0.3-0.3C56.8,23.3,56.7,23.1,56.5,23.1L56.5,23.1z"/>
<path class="st1" d="M69.3,32.4l-6.8-6.8c-0.6,0.9-1.4,1.7-2.3,2.3l6.8,6.8c0.6,0.7,1.6,0.7,2.3,0.1c0,0,0,0,0,0
	C70,34.1,70,33.1,69.3,32.4z"/>
</svg>
